<?xml version="1.0"?>
<svg xmlns="http://www.w3.org/2000/svg" id="Layer_1" height="512px" viewBox="0 0 512 512" width="512px" data-name="Layer 1"><g><path d="m141.788 230.728c-7.942-5.411-15.463-14.9-20.634-26.026-3.942-8.483-6.113-17.185-6.113-24.5v-78.736l77.287-37.815-25.183-12.351-82.1 40.171v78.729c0 7.319 2.171 16.021 6.113 24.5 5.171 11.13 12.692 20.615 20.634 26.026l55.36 37.718 7.662-5.22z" fill="#d4e1f4" data-original="#D4E1F4"/><path d="m501.915 294.381a5.867 5.867 0 0 0 -.247-.985c-.015-.045-.032-.09-.049-.135a5.972 5.972 0 0 0 -.44-.932l-.076-.125a5.993 5.993 0 0 0 -.639-.854c-.016-.018-.026-.04-.043-.058l-70.306-76.6a33.377 33.377 0 0 0 -24.528-10.781h-81.287v-39.468a33.332 33.332 0 0 0 -33.3-33.294h-35.743a6 6 0 0 0 0 12h35.743a21.319 21.319 0 0 1 21.3 21.294v249.18h-133.7a53.756 53.756 0 0 0 -106.842 0h-28.464a21.318 21.318 0 0 1 -21.294-21.293v-227.887a21.319 21.319 0 0 1 21.294-21.294h35.747a6 6 0 0 0 0-12h-35.747a33.332 33.332 0 0 0 -33.294 33.294v227.887a33.331 33.331 0 0 0 33.294 33.293h28.459a53.756 53.756 0 0 0 106.842 0h167.434a53.755 53.755 0 0 0 106.841 0h15.836a33.331 33.331 0 0 0 33.294-33.293v-96.981a5.98 5.98 0 0 0 -.062-.819c-.007-.05-.015-.099-.023-.149zm-96.328-78.473a21.343 21.343 0 0 1 15.687 6.9l61.075 66.546h-158.049v-73.446zm-280.413 245.479a41.764 41.764 0 1 1 41.764-41.764 41.812 41.812 0 0 1 -41.764 41.764zm274.275 0a41.764 41.764 0 1 1 41.764-41.764 41.811 41.811 0 0 1 -41.764 41.764zm90.551-69.057a21.318 21.318 0 0 1 -21.294 21.293h-15.836a53.755 53.755 0 0 0 -106.841 0h-21.729v-112.274h165.7z" fill="#0635c9" data-original="#0635C9" class="active-path" style="fill:#1273EB" data-old_color="#0635c9"/><g fill="#1ae5be"><path d="m167.148 271.706a6 6 0 0 0 3.378-1.041l58.74-40.019c17.938-12.22 31.991-38.771 31.991-60.448v-82.353a6 6 0 0 0 -3.358-5.387l-88.108-43.231a5.991 5.991 0 0 0 -5.279 0l-88.112 43.105a6 6 0 0 0 -3.363 5.39v82.478c0 9.159 2.5 19.381 7.23 29.561 6.057 13.035 15.082 24.293 24.761 30.887l58.739 40.019a5.99 5.99 0 0 0 3.381 1.039zm-75.994-77c-3.942-8.483-6.113-17.185-6.113-24.5v-78.74l82.1-40.171 82.112 40.289v78.616c0 17.514-12.249 40.654-26.747 50.53l-55.362 37.718-55.36-37.718c-7.938-5.413-15.459-14.898-20.63-26.03z" data-original="#1AE5BE" class="" style="fill:#EB7D16" data-old_color="#1AE5BE"/><path d="m208.726 127.587a6 6 0 0 0 -8.485-.106l-43.76 42.681-22.424-21.872a6 6 0 1 0 -8.379 8.59l26.614 25.958a6 6 0 0 0 8.379 0l47.949-46.767a6 6 0 0 0 .106-8.484z" data-original="#1AE5BE" class="" style="fill:#EB7D16" data-old_color="#1AE5BE"/></g></g> </svg>
