<?xml version="1.0"?>
<svg xmlns="http://www.w3.org/2000/svg" height="512px" viewBox="0 -1 433.99451 433" width="512px" class=""><g><path d="m174.699219 121.28125h-20c-.738281 0-1.429688.375-1.824219 1l-33.113281 51.945312h20l33.113281-51.945312c.394531-.625 1.085938-1 1.824219-1zm0 0" fill="#d4e1f4" data-original="#D4E1F4" class=""/><path d="m136.167969 290.214844c-1.195313 0-2.167969-.96875-2.167969-2.164063v-99.824219h-20v119.824219c0 1.195313.972656 2.164063 2.167969 2.164063h201.664062c1.199219 0 2.167969-.96875 2.167969-2.164063v-17.835937zm0 0" fill="#d4e1f4" data-original="#D4E1F4" class=""/><g fill="#0635c9"><path d="m408.167969 127.121094c-3.566407 1.492187-5.25 5.589844-3.757813 9.15625 10.339844 24.730468 15.640625 51.277344 15.589844 78.082031 0 111.761719-90.925781 202.691406-202.6875 202.691406-41.726562.125-82.457031-12.75-116.53125-36.835937l28.335938-38.457032c1.664062-2.257812 1.816406-5.289062.394531-7.703124-1.421875-2.417969-4.152344-3.75-6.933594-3.390626l-67.765625 8.800782c-1.894531.246094-3.605469 1.25-4.738281 2.789062-1.132813 1.535156-1.589844 3.46875-1.261719 5.347656l11.671875 67.332032c.476563 2.765625 2.558594 4.976562 5.289063 5.621094 2.730468.644531 5.582031-.402344 7.246093-2.664063l19.453125-26.398437c78.933594 55.570312 185.105469 52.242187 260.402344-8.164063 75.300781-60.40625 101.574219-163.328125 64.445312-252.4375-1.484374-3.570313-5.585937-5.257813-9.152343-3.769531zm-336.6875 269.257812-7.625-43.976562 44.257812-5.746094-22.671875 30.773438c-.019531.023437-.042968.046874-.058594.070312-.03125.039062-.054687.082031-.085937.125zm0 0" data-original="#0635C9" class="" style="fill:#1273EB" data-old_color="#0635C9"/><path d="m14 217.140625c0-111.761719 90.925781-202.691406 202.6875-202.691406 41.726562-.125 82.457031 12.75 116.53125 36.835937l-28.335938 38.457032c-1.660156 2.257812-1.816406 5.289062-.394531 7.707031 1.425781 2.414062 4.152344 3.75 6.933594 3.386719l67.765625-8.800782c1.894531-.242187 3.605469-1.25 4.738281-2.785156 1.132813-1.539062 1.589844-3.46875 1.261719-5.351562l-11.675781-67.332032c-.476563-2.765625-2.558594-4.976562-5.289063-5.621094-2.730468-.640624-5.582031.40625-7.242187 2.664063l-19.457031 26.40625c-78.933594-55.574219-185.109376-52.246094-260.40625 8.164063-75.300782 60.40625-101.574219 163.332031-64.441407 252.4375 1.515625 3.53125 5.589844 5.179687 9.132813 3.699218 3.542968-1.480468 5.230468-5.539062 3.785156-9.097656-10.34375-24.730469-15.644531-51.273438-15.59375-78.078125zm348.519531-182.019531 7.625 43.972656-44.257812 5.746094 22.671875-30.773438c.019531-.023437.042968-.042968.058594-.070312.03125-.039063.054687-.082032.085937-.121094zm0 0" data-original="#0635C9" class="" style="fill:#1273EB" data-old_color="#0635C9"/><path d="m247.738281 324.214844c3.863281 0 7-3.132813 7-7v-77.253906c0-2.820313-1.695312-5.367188-4.292969-6.457032l-61.476562-25.773437c-2.160156-.90625-4.628906-.671875-6.582031.625s-3.125 3.484375-3.125 5.828125v103.03125c0 3.867187 3.136719 7 7 7 3.867187 0 7-3.132813 7-7v-92.503906l47.476562 19.898437v72.601563c-.003906 3.867187 3.128907 7.003906 7 7.003906zm0 0" data-original="#0635C9" class="" style="fill:#1273EB" data-old_color="#0635C9"/></g><path d="m333.9375 180.328125c-.011719-.070313-.023438-.144531-.035156-.214844-.039063-.257812-.09375-.515625-.164063-.765625-.011719-.035156-.019531-.074218-.027343-.109375-.089844-.292969-.195313-.578125-.316407-.855469-.019531-.042968-.042969-.085937-.0625-.128906-.113281-.238281-.242187-.472656-.378906-.699218-.019531-.027344-.03125-.0625-.050781-.089844l-39.96875-62.699219c-2.960938-4.667969-8.105469-7.492187-13.632813-7.480469h-124.601562c-5.527344-.011718-10.671875 2.808594-13.632813 7.480469l-39.96875 62.699219c-.019531.027344-.03125.058594-.050781.089844-.140625.226562-.265625.457031-.378906.699218-.019531.042969-.042969.082032-.0625.125-.125.277344-.230469.566406-.316407.855469-.011718.035156-.019531.074219-.027343.109375-.070313.253906-.125.507812-.164063.769531-.011718.070313-.027344.140625-.035156.210938-.039062.300781-.0625.601562-.0625.902343v126.824219c.007812 8.921875 7.242188 16.15625 16.167969 16.164063h201.664062c8.925781-.007813 16.15625-7.242188 16.167969-16.164063v-126.824219c0-.300781-.023438-.601562-.0625-.898437zm-52.8125-58.042969 33.113281 51.941406h-90.238281v-52.945312h55.300781c.738281 0 1.429688.378906 1.824219 1.003906zm-128.25 0c.398438-.625 1.085938-1.003906 1.828125-1h55.296875v52.941406h-90.238281zm164.957031 187.929688h-201.664062c-1.195313 0-2.167969-.96875-2.167969-2.164063v-119.824219h206v119.824219c0 1.195313-.96875 2.164063-2.167969 2.164063zm0 0" fill="#1ae5be" data-original="#1AE5BE" class="" style="fill:#EB7D16" data-old_color="#1ae5be"/></g> </svg>
