<?xml version="1.0"?>
<svg xmlns="http://www.w3.org/2000/svg" height="512px" viewBox="0 -5 436.277 436" width="512px"><g><g fill="#d4e1f4"><path d="m261.960938 49.738281 25.117187-25.113281 46.429687 46.425781-56.429687-56.425781-25.117187 25.113281 31.3125 31.3125zm0 0" data-original="#D4E1F4"/><path d="m211.929688 16.675781-54.375 54.375h20l44.375-44.375zm0 0" data-original="#D4E1F4"/><path d="m298.492188 83.050781h-.1875l.09375.09375zm0 0" data-original="#D4E1F4"/><path d="m165.554688 83.050781h-.1875l.09375.09375zm0 0" data-original="#D4E1F4"/><path d="m79.726562 117.050781c.019532-18.769531 15.230469-33.976562 34-34h-20c-18.769531.023438-33.980468 15.230469-34 34v111.953125c6.789063-4.179687 13.457032-8.550781 20-13.113281zm0 0" data-original="#D4E1F4"/><path d="m212 263.601562c0-2.394531-1.425781-4.5625-3.625-5.511718l-.59375-.253906c-31.308594-13.472657-60.910156-30.613282-88.179688-51.058594-2.132812-1.601563-5.066406-1.601563-7.199218 0-2.121094 1.585937-4.261719 3.140625-6.410156 4.6875 25.488281 18.394531 52.914062 33.941406 81.789062 46.367187l.589844.253907c2.203125.949218 3.628906 3.117187 3.628906 5.511718v52.210938c.054688 13.386718-2.710938 26.632812-8.117188 38.878906h20c5.40625-12.246094 8.171876-25.492188 8.117188-38.878906zm0 0" data-original="#D4E1F4"/><path d="m341.003906 181.234375c-11.75-.007813-22.828125 5.476563-29.949218 14.828125-7.117188 9.347656-9.460938 21.488281-6.328126 32.8125 4.519532-16.308594 19.351563-27.613281 36.277344-27.636719h83.273438v-20zm0 0" data-original="#D4E1F4"/></g><path d="m430.277344 169.234375h-10.550782v-52.183594c-.03125-25.390625-20.609374-45.96875-46-46h-23.25l-69.15625-69.15625c-2.34375-2.339843-6.140624-2.339843-8.484374 0l-29.359376 29.359375-27.304687-27.300781c-2.34375-2.339844-6.140625-2.339844-8.484375 0l-67.097656 67.101563h-46.863282c-25.394531.027343-45.972656 20.605468-46 46v122.542968h12v-122.546875c.019532-18.769531 15.230469-33.976562 34-34h51.640626l.09375.09375.09375-.09375h132.75l.09375.09375.09375-.09375h95.234374c18.769532.023438 33.976563 15.230469 34 34v52.183594h-66.722656c-27.328125.121094-49.414062 22.308594-49.414062 49.636719 0 27.324218 22.085937 49.511718 49.414062 49.636718h66.722656v52.179688c-.023437 18.769531-15.230468 33.980469-34 34h-199.550781v12h199.550781c25.390626-.027344 45.96875-20.605469 46-46v-52.179688h10.550782c3.3125 0 6-2.6875 6-6v-87.273437c0-3.3125-2.6875-6-6-6zm-153.199219-154.609375 56.429687 56.425781h-50.234374l-31.3125-31.3125zm-119.523437 56.425781 54.375-54.375 54.375 54.375zm266.722656 185.457031h-83.273438c-20.710937-.109374-37.441406-16.925781-37.441406-37.636718 0-20.710938 16.730469-37.53125 37.441406-37.636719h83.273438zm0 0" fill="#0635c9" data-original="#0635C9" class="active-path" style="fill:#1273EB" data-old_color="#0635c9"/><path d="m320.277344 218.875c.003906 12.351562 10.015625 22.363281 22.367187 22.359375 12.351563 0 22.363281-10.015625 22.359375-22.367187 0-12.351563-10.015625-22.363282-22.363281-22.359376-12.347656.011719-22.351563 10.019532-22.363281 22.367188zm22.363281-10.367188c5.722656-.003906 10.363281 4.636719 10.363281 10.359376.003906 5.722656-4.636718 10.367187-10.359375 10.367187-5.722656.003906-10.363281-4.636719-10.367187-10.359375.003906-5.722656 4.640625-10.359375 10.363281-10.367188zm0 0" fill="#0635c9" data-original="#0635C9" class="active-path" style="fill:#1273EB" data-old_color="#0635c9"/><path d="m188.375 258.089844-.59375-.253906c-31.308594-13.472657-60.910156-30.613282-88.179688-51.058594-2.132812-1.601563-5.066406-1.601563-7.199218 0-27.273438 20.445312-56.875 37.585937-88.1875 51.058594l-.59375.253906c-2.195313.949218-3.621094 3.113281-3.621094 5.507812v52.210938c0 33.777344 16.140625 63.445312 46.675781 85.800781 14.019531 10.234375 29.574219 18.1875 46.082031 23.5625.546876.164063 1.113282.246094 1.683594.242187.550782 0 1.097656-.074218 1.628906-.222656 16.988282-5.339844 33.050782-13.273437 47.613282-23.523437 31.609375-22.347657 48.316406-52.035157 48.316406-85.855469v-52.207031c0-2.398438-1.425781-4.566407-3.625-5.515625zm-8.375 57.722656c0 22.621094-8.179688 42.664062-24.363281 59.832031-.269531-3.191406-3-5.605469-6.199219-5.488281s-5.742188 2.730469-5.777344 5.929688v5.5c0 1.429687.507813 2.808593 1.4375 3.894531-2.550781 2.113281-5.238281 4.175781-8.066406 6.1875-13.078125 9.160156-27.414062 16.386719-42.558594 21.453125-14.640625-5.085938-28.453125-12.296875-40.992187-21.40625-2.496094-1.835938-4.882813-3.71875-7.15625-5.644532 1.28125-1.136718 2.015625-2.765624 2.015625-4.480468v-5.5c0-3.3125-2.683594-6-6-6-3.3125 0-6 2.6875-6 6v.480468c-16.160156-17.363281-24.339844-37.71875-24.339844-60.753906v-48.277344c29.691406-13.039062 57.859375-29.300781 84-48.488281 26.140625 19.1875 54.3125 35.449219 84 48.488281zm0 0" fill="#1ae5be" data-original="#1AE5BE" class="" style="fill:#EB7D16" data-old_color="#1ae5be"/><path d="m96 370.085938c-3.3125 0-6 2.6875-6 6v5.5c0 3.316406 2.6875 6 6 6 3.316406 0 6-2.683594 6-6v-5.5c0-3.3125-2.683594-6-6-6zm0 0" fill="#1ae5be" data-original="#1AE5BE" class="" style="fill:#EB7D16" data-old_color="#1ae5be"/><path d="m113.886719 370.085938c-3.3125 0-6 2.6875-6 6v5.5c0 3.316406 2.6875 6 6 6 3.316406 0 6-2.683594 6-6v-5.5c0-3.3125-2.683594-6-6-6zm0 0" fill="#1ae5be" data-original="#1AE5BE" class="" style="fill:#EB7D16" data-old_color="#1ae5be"/><path d="m125.773438 376.085938v5.5c0 3.316406 2.6875 6 6 6 3.316406 0 6-2.683594 6-6v-5.5c0-3.3125-2.683594-6-6-6-3.3125 0-6 2.6875-6 6zm0 0" fill="#1ae5be" data-original="#1AE5BE" class="" style="fill:#EB7D16" data-old_color="#1ae5be"/><path d="m78.113281 370.085938c-3.3125 0-6 2.6875-6 6v5.5c0 3.316406 2.6875 6 6 6 3.316407 0 6-2.683594 6-6v-5.5c0-3.3125-2.683593-6-6-6zm0 0" fill="#1ae5be" data-original="#1AE5BE" class="" style="fill:#EB7D16" data-old_color="#1ae5be"/><path d="m60.226562 370.085938c-3.3125 0-6 2.6875-6 6v5.5c0 3.316406 2.6875 6 6 6 3.316407 0 6-2.683594 6-6v-5.5c0-3.3125-2.683593-6-6-6zm0 0" fill="#1ae5be" data-original="#1AE5BE" class="" style="fill:#EB7D16" data-old_color="#1ae5be"/><path d="m72.140625 308.789062c-2.355469-2.273437-6.097656-2.242187-8.414063.074219-2.3125 2.3125-2.34375 6.054688-.070312 8.410157l20.382812 20.375c2.34375 2.34375 6.140626 2.34375 8.484376 0l35.824218-35.820313c2.34375-2.34375 2.34375-6.144531 0-8.488281-2.339844-2.34375-6.140625-2.34375-8.484375 0l-31.582031 31.582031zm0 0" fill="#1ae5be" data-original="#1AE5BE" class="" style="fill:#EB7D16" data-old_color="#1ae5be"/></g> </svg>
